<?xml version="1.0" standalone="no"?>
<!DOCTYPE svg PUBLIC "-//W3C//DTD SVG 20010904//EN"
 "http://www.w3.org/TR/2001/REC-SVG-20010904/DTD/svg10.dtd">
<svg version="1.0" xmlns="http://www.w3.org/2000/svg"
 width="416.000000pt" height="416.000000pt" viewBox="0 0 416.000000 416.000000"
 preserveAspectRatio="xMidYMid meet">
<metadata>
Created by potrace 1.14, written by Peter Selinger 2001-2017
</metadata>
<g transform="translate(0.000000,416.000000) scale(0.100000,-0.100000)"
fill="#000000" stroke="none">
<path d="M1965 3430 c-545 -60 -1010 -447 -1160 -965 -77 -266 -71 -568 15
-825 65 -192 172 -363 324 -516 256 -258 555 -389 916 -401 242 -8 431 32 645
136 392 192 665 553 742 985 24 135 21 363 -6 493 -116 555 -537 973 -1086
1076 -105 20 -289 28 -390 17z m772 -751 c41 -15 151 -128 164 -168 15 -46 13
-114 -5 -148 -8 -16 -221 -233 -473 -485 -389 -388 -464 -458 -498 -467 -100
-27 -131 -8 -369 227 -225 224 -256 264 -256 333 0 67 12 92 76 159 66 69 105
90 169 90 70 0 99 -19 220 -140 l110 -110 345 344 c190 190 359 352 375 360
35 18 101 21 142 5z"/>
</g>
</svg>
